<!DOCTYPE svg PUBLIC "-//W3C//DTD SVG 20010904//EN" "http://www.w3.org/TR/2001/REC-SVG-20010904/DTD/svg10.dtd">
<svg version="1.0" xmlns="http://www.w3.org/2000/svg" width="998px" height="1364px" viewBox="0 0 8780 12000" preserveAspectRatio="xMidYMid meet">
<g id="layer101" fill="#000000" stroke="none">
<path d="M1865 11973 c-27 -14 -72 -33 -100 -43 -28 -10 -76 -31 -107 -47 -30 -17 -67 -33 -82 -37 -14 -3 -48 -20 -76 -36 -28 -17 -58 -30 -66 -30 -9 0 -43 -16 -75 -35 -33 -19 -65 -35 -70 -35 -6 0 -41 -18 -79 -40 -38 -22 -73 -40 -78 -40 -6 0 -38 -16 -72 -35 -34 -19 -64 -35 -66 -35 -19 0 -334 -199 -334 -211 0 -5 -7 -9 -15 -9 -8 0 -29 -16 -48 -35 -19 -19 -38 -35 -42 -35 -27 0 -265 -287 -265 -319 0 -6 -16 -39 -35 -74 -19 -35 -35 -73 -35 -83 0 -11 -4 -24 -8 -29 -13 -14 -51 -123 -61 -175 -5 -25 -25 -103 -45 -175 -19 -71 -40 -161 -45 -200 -6 -38 -21 -124 -34 -190 -21 -115 -22 -141 -22 -680 1 -486 4 -596 23 -835 12 -151 27 -351 32 -445 28 -463 42 -614 76 -795 28 -148 68 -211 148 -235 67 -20 626 -22 626 -2 0 6 -7 179 -15 382 -8 204 -15 521 -15 705 0 342 9 454 45 600 9 36 21 85 26 108 12 57 72 193 115 259 19 28 34 55 34 60 0 5 15 27 33 49 19 21 36 45 38 51 2 7 17 27 32 45 15 18 73 87 128 153 56 66 124 145 152 175 29 30 86 96 129 145 42 50 88 101 101 115 61 64 200 260 227 320 15 31 35 167 50 325 6 66 20 217 30 335 37 403 48 1067 19 1123 -15 28 -112 23 -174 -10z"/>
<path d="M6832 11960 c-13 -6 -32 -30 -45 -57 -21 -46 -22 -61 -25 -433 -4 -468 11 -773 48 -1007 10 -59 74 -266 90 -288 4 -5 24 -41 45 -79 20 -38 46 -78 56 -89 10 -12 19 -26 19 -33 0 -7 6 -17 13 -21 7 -4 36 -38 66 -75 29 -38 57 -68 62 -68 5 0 9 -6 9 -12 0 -13 21 -36 153 -168 37 -38 67 -72 67 -77 0 -4 17 -24 38 -45 99 -99 112 -114 112 -125 0 -7 4 -13 9 -13 10 0 100 -117 162 -211 86 -129 173 -332 189 -439 5 -30 16 -102 26 -160 25 -151 23 -526 -5 -1068 -13 -244 -20 -449 -17 -457 5 -13 60 -15 369 -15 l365 0 26 143 c32 175 46 296 46 409 0 48 7 192 15 320 39 608 48 849 52 1461 4 445 2 667 -6 735 -16 137 -56 315 -103 467 -22 72 -45 146 -51 165 -5 19 -20 57 -33 84 -13 28 -24 55 -24 61 0 6 -16 37 -35 69 -19 32 -35 64 -35 70 0 7 -8 21 -18 32 -10 10 -33 41 -51 67 -50 74 -147 173 -237 243 -45 35 -86 64 -91 64 -5 0 -20 10 -32 21 -28 26 -131 86 -227 132 -39 19 -74 39 -78 45 -3 6 -20 13 -37 17 -17 4 -61 25 -98 46 -38 21 -74 39 -81 39 -6 0 -42 15 -79 34 -111 57 -216 106 -225 106 -5 0 -44 18 -87 40 -43 22 -87 40 -96 40 -10 1 -43 9 -73 20 -59 21 -111 24 -148 10z"/>
<path d="M4190 10038 c-52 -25 -90 -56 -90 -74 0 -7 -4 -14 -8 -16 -11 -4 -54 -66 -78 -113 -12 -22 -51 -96 -86 -165 -109 -208 -150 -284 -159 -295 -4 -6 -25 -44 -46 -84 -46 -88 -59 -111 -101 -179 -17 -29 -32 -55 -32 -59 0 -3 -18 -29 -39 -57 -92 -120 -110 -197 -75 -323 9 -32 22 -83 29 -113 7 -30 29 -104 49 -163 20 -60 36 -115 36 -124 0 -8 15 -81 34 -162 51 -215 91 -476 106 -691 5 -74 12 -160 15 -190 l6 -55 -158 -77 c-196 -96 -311 -148 -326 -148 -7 0 -48 -14 -92 -31 -44 -17 -98 -34 -120 -39 -22 -4 -89 -22 -148 -39 -60 -18 -145 -39 -190 -46 -45 -8 -134 -26 -197 -40 -63 -13 -131 -25 -150 -25 -19 0 -69 -6 -110 -14 -173 -33 -541 -68 -990 -96 -85 -6 -370 -13 -634 -17 l-478 -6 5 -556 c3 -306 10 -599 16 -651 13 -120 30 -190 44 -190 16 0 199 50 374 101 57 17 144 34 195 40 51 5 100 11 108 14 49 14 431 47 649 55 651 25 1136 50 1241 65 19 3 91 10 160 15 69 6 139 13 156 16 l31 6 5 -249 c4 -170 9 -257 18 -272 15 -29 5 -24 -58 27 l-43 34 -862 -21 c-1092 -28 -1352 -42 -1502 -85 -49 -14 -98 -31 -107 -36 -10 -6 -25 -10 -33 -10 -8 0 -48 -15 -87 -34 -105 -48 -247 -112 -287 -127 l-34 -13 6 -115 c4 -64 18 -197 32 -296 15 -99 30 -208 34 -242 14 -100 124 -478 143 -489 5 -3 8 -16 8 -29 0 -13 16 -58 35 -99 19 -42 35 -81 35 -88 0 -6 14 -41 31 -77 94 -199 122 -257 129 -271 49 -83 60 -104 60 -113 0 -5 16 -34 35 -63 19 -29 35 -56 35 -61 0 -4 15 -30 33 -58 19 -27 49 -76 67 -108 19 -31 38 -57 42 -57 4 0 8 -8 8 -18 0 -10 8 -27 18 -38 9 -10 44 -59 77 -109 32 -49 74 -107 92 -128 18 -20 33 -44 33 -52 0 -8 4 -15 8 -15 7 0 76 -85 140 -174 12 -17 28 -35 35 -41 7 -5 24 -26 37 -45 13 -19 35 -43 47 -53 13 -10 23 -23 23 -29 0 -11 -10 -1 293 -309 128 -130 258 -258 291 -285 32 -27 68 -59 79 -71 11 -13 26 -23 34 -23 7 0 19 -11 28 -24 8 -12 31 -31 50 -42 19 -10 35 -22 35 -25 0 -8 123 -102 170 -130 14 -9 39 -28 55 -43 15 -14 31 -26 35 -26 4 0 50 -28 101 -63 80 -53 136 -87 239 -146 8 -5 35 -19 60 -31 25 -13 52 -29 61 -36 8 -8 22 -14 30 -14 8 0 47 -18 87 -40 40 -22 80 -40 88 -40 8 0 40 -13 72 -29 31 -15 68 -32 82 -35 14 -4 52 -21 85 -36 33 -16 80 -38 105 -49 25 -11 68 -32 95 -46 28 -15 64 -34 80 -43 97 -51 134 -72 169 -95 21 -15 43 -27 48 -27 5 0 17 -8 28 -17 31 -29 167 -94 250 -119 28 -9 93 -14 171 -14 110 0 137 3 205 26 44 14 83 30 89 35 5 5 17 9 26 9 18 0 121 59 127 73 2 4 11 7 21 7 9 0 27 9 39 20 23 22 153 98 223 131 8 4 39 19 67 34 34 18 78 30 122 35 68 7 166 41 300 102 59 26 107 50 255 125 27 14 61 34 74 44 13 11 30 19 37 19 12 0 72 36 101 60 7 5 17 10 22 10 6 0 39 19 75 42 35 24 79 52 98 63 60 36 82 50 172 110 49 33 98 65 110 72 12 7 32 21 46 32 14 11 59 44 100 74 41 30 89 66 105 81 17 14 73 63 125 108 110 96 470 454 470 468 0 5 16 22 35 37 19 15 35 32 35 38 0 5 14 23 30 40 26 25 100 113 128 150 4 6 35 46 67 90 33 44 70 94 83 110 12 17 43 62 69 100 25 39 49 72 52 75 4 3 13 20 20 37 8 18 17 33 21 33 4 0 20 24 35 52 16 29 41 72 57 95 15 23 28 46 28 51 0 6 16 34 35 63 19 30 35 59 35 65 0 7 16 40 35 74 19 34 35 65 35 68 0 4 15 39 34 77 47 96 113 245 121 275 4 14 20 53 36 88 16 35 29 69 29 76 0 7 11 41 26 77 14 35 31 87 39 114 8 28 28 91 45 140 18 50 38 115 45 145 7 30 21 80 30 110 9 30 21 75 27 100 5 25 25 104 44 175 44 167 45 234 6 296 -29 44 -116 129 -134 129 -6 0 -22 8 -36 18 -93 63 -473 160 -752 192 -493 56 -1115 83 -2080 90 l-65 0 3 218 c2 119 5 217 6 218 3 2 294 -16 486 -30 269 -19 536 -32 945 -46 411 -13 589 -25 750 -51 72 -11 157 -24 190 -28 62 -9 188 -47 356 -107 53 -19 101 -34 108 -34 7 0 52 -14 102 -31 49 -18 92 -29 95 -26 13 12 23 432 23 928 l1 516 -222 6 c-411 13 -1099 49 -1458 77 -289 23 -795 103 -995 157 -49 14 -129 35 -177 48 -97 26 -178 54 -193 67 -5 4 -19 8 -31 8 -13 0 -57 16 -98 35 -42 19 -81 35 -87 35 -5 0 -49 18 -97 41 -48 22 -121 57 -162 76 -41 19 -106 50 -145 69 -38 19 -78 34 -87 34 -22 0 -22 7 -3 191 29 285 57 477 96 649 21 96 39 182 39 190 -1 14 18 74 101 335 40 126 44 211 11 270 -43 77 -64 110 -81 130 -10 11 -33 47 -51 80 -19 33 -40 66 -47 73 -7 7 -13 20 -13 27 0 13 -35 73 -60 102 -5 7 -10 18 -10 26 0 7 -13 33 -28 58 -15 24 -55 97 -87 161 -122 238 -198 377 -223 405 -10 10 -25 31 -35 46 -10 15 -28 32 -40 38 -12 5 -33 16 -47 24 -38 22 -127 19 -180 -7z m147 -3086 c21 -13 31 -55 43 -178 14 -142 67 -296 137 -404 13 -19 23 -40 23 -47 0 -7 16 -35 35 -62 19 -26 35 -53 35 -58 0 -5 16 -27 35 -49 19 -21 35 -44 35 -50 0 -6 11 -21 25 -34 36 -34 31 -44 -12 -22 -50 25 -90 39 -198 69 -80 22 -105 24 -225 20 -119 -3 -146 -8 -225 -35 -49 -17 -90 -30 -91 -29 -1 1 13 25 32 52 18 28 34 56 34 64 0 8 6 22 14 30 30 35 119 226 168 361 36 97 58 192 58 247 0 38 26 114 43 125 15 10 19 10 34 0z m113 -1008 c41 -8 89 -20 105 -26 47 -18 196 -109 202 -124 3 -8 10 -14 16 -14 12 0 57 -40 57 -51 0 -4 13 -20 28 -36 82 -83 162 -303 162 -447 0 -112 -54 -311 -96 -354 -7 -6 -16 -22 -19 -33 -13 -41 -129 -161 -186 -193 -19 -11 -39 -25 -45 -31 -7 -6 -61 -31 -120 -55 l-109 -44 -145 0 c-117 -1 -155 3 -200 18 -84 29 -220 94 -220 105 0 5 -9 13 -20 16 -25 8 -127 111 -135 136 -4 11 -10 19 -15 19 -10 0 -82 144 -104 207 -21 61 -30 223 -17 321 12 92 72 243 116 290 14 15 25 31 25 37 0 5 16 26 35 45 19 19 35 38 35 42 0 4 6 8 13 8 6 0 26 13 42 28 17 16 42 35 56 43 111 60 154 78 229 92 138 27 177 27 310 1z m826 -384 c7 0 29 -8 49 -17 l35 -17 0 -190 c0 -224 -15 -323 -59 -409 -17 -33 -31 -64 -31 -69 0 -20 -113 -149 -167 -191 -56 -43 -210 -123 -219 -114 -4 4 14 23 71 77 44 42 95 103 95 115 0 7 3 15 8 17 13 6 62 76 62 90 0 7 6 25 14 39 7 15 23 54 35 88 19 57 21 82 21 346 l0 284 36 -24 c20 -14 43 -25 50 -25z m-1884 -257 c4 -263 4 -270 31 -348 16 -44 40 -100 55 -125 15 -25 31 -53 37 -62 5 -10 32 -46 60 -80 27 -35 41 -56 30 -48 -11 8 -24 21 -28 28 -4 6 -14 12 -21 12 -12 0 -100 96 -121 131 -5 10 -21 37 -35 61 -14 24 -39 81 -55 128 -28 82 -29 92 -33 322 l-4 237 34 4 c18 2 36 5 40 5 4 1 8 -118 10 -265z m383 -928 c28 -7 67 -16 89 -20 38 -6 38 -6 16 -23 -56 -43 -80 -64 -80 -71 0 -5 -16 -25 -35 -45 l-35 -37 -1 28 c0 15 -12 65 -27 110 l-28 82 26 -5 c14 -4 48 -12 75 -19z m1166 -17 c-23 -37 -34 -59 -51 -105 -7 -18 -15 -33 -19 -33 -4 0 -37 29 -73 65 l-65 65 36 1 c20 0 65 8 101 18 94 26 95 26 71 -11z m-528 -59 c40 -11 93 -60 114 -108 18 -38 16 -156 -3 -192 -25 -49 -89 -108 -134 -124 -128 -45 -254 6 -315 129 -39 78 -30 159 27 238 37 53 211 85 311 57z m367 -286 c55 -111 56 -133 41 -640 -6 -208 -18 -718 -26 -1133 -18 -973 -33 -1431 -51 -1655 -16 -196 -27 -256 -53 -278 -39 -32 -418 -73 -601 -64 -150 8 -176 17 -183 65 -8 47 -24 431 -37 862 -14 461 -26 836 -47 1435 -10 281 -18 693 -18 916 l0 406 35 68 35 68 7 -47 c9 -65 71 -172 131 -228 28 -27 54 -48 58 -48 5 0 2 -15 -6 -32 -18 -46 -28 -121 -21 -161 5 -25 16 -39 45 -55 41 -23 57 -22 102 9 22 15 27 29 32 79 9 87 18 99 67 95 55 -4 70 -19 70 -71 0 -82 30 -124 89 -124 24 0 49 8 65 21 23 18 26 28 26 80 0 33 -5 79 -11 102 l-10 42 74 77 c78 80 108 142 123 251 4 26 10 47 14 47 4 0 27 -39 50 -87z"/>
</g>
<g id="layer102" fill="#080808" stroke="none">
</g>
<g id="layer103" fill="#101010" stroke="none">
</g>
<g id="layer104" fill="#181818" stroke="none">
</g>
<g id="layer105" fill="#202020" stroke="none">
</g>
<g id="layer106" fill="#282828" stroke="none">
<path d="M1865 11973 c-27 -14 -72 -33 -100 -43 -28 -10 -76 -31 -107 -47 -30 -17 -67 -33 -82 -37 -14 -3 -48 -20 -76 -36 -28 -17 -58 -30 -66 -30 -9 0 -43 -16 -75 -35 -33 -19 -65 -35 -70 -35 -6 0 -41 -18 -79 -40 -38 -22 -73 -40 -79 -40 -5 0 -37 -16 -70 -35 -32 -19 -62 -35 -65 -35 -21 0 -336 -198 -336 -211 0 -5 -7 -9 -15 -9 -8 0 -29 -16 -48 -35 -19 -19 -38 -35 -42 -35 -7 0 -66 -60 -143 -143 -61 -67 -192 -295 -192 -334 0 -11 -4 -23 -8 -28 -13 -15 -51 -123 -61 -175 -5 -25 -23 -91 -40 -148 -16 -57 -33 -124 -36 -150 -4 -26 -17 -103 -30 -172 -43 -226 -47 -313 -42 -851 4 -386 10 -565 26 -764 11 -143 25 -339 31 -435 29 -490 43 -632 81 -814 22 -108 33 -136 77 -182 20 -22 44 -35 81 -43 62 -13 597 -15 605 -2 3 4 -1 179 -9 387 -8 209 -15 528 -15 709 0 337 9 450 45 595 9 36 21 85 26 108 12 57 72 193 115 259 19 28 34 55 34 60 0 5 15 27 33 49 19 21 36 45 38 51 2 7 17 27 32 45 15 18 73 87 128 153 56 66 138 161 184 210 45 50 103 115 128 145 26 30 57 66 70 80 61 64 201 261 227 319 35 79 95 735 111 1211 10 330 6 538 -12 573 -15 28 -112 23 -174 -10z"/>
<path d="M4190 10038 c-48 -22 -90 -56 -90 -70 0 -5 -8 -18 -18 -28 -22 -24 -75 -117 -157 -275 -117 -225 -157 -300 -166 -311 -5 -7 -23 -38 -40 -70 -39 -76 -57 -107 -97 -172 -17 -29 -32 -55 -32 -59 0 -3 -18 -29 -39 -57 -119 -155 -119 -207 0 -586 22 -69 39 -131 39 -139 0 -7 15 -79 34 -160 51 -215 91 -476 106 -691 5 -74 12 -160 15 -190 l6 -55 -158 -77 c-196 -96 -311 -148 -326 -148 -7 0 -48 -14 -92 -31 -44 -17 -98 -34 -120 -39 -22 -4 -89 -22 -148 -39 -60 -18 -145 -39 -190 -46 -45 -8 -134 -26 -197 -40 -63 -13 -131 -25 -150 -25 -19 0 -69 -6 -110 -14 -173 -33 -541 -68 -990 -96 -85 -6 -370 -13 -634 -17 l-478 -6 5 -556 c3 -306 10 -599 16 -651 13 -119 30 -190 44 -190 13 0 212 54 374 101 57 17 144 34 195 40 51 5 100 11 108 14 33 10 397 44 570 54 102 6 331 16 510 21 371 13 572 24 815 45 256 23 267 24 306 31 l36 6 5 -249 c4 -170 9 -257 18 -272 15 -29 5 -24 -58 27 l-43 34 -862 -21 c-1092 -28 -1349 -42 -1502 -86 -49 -14 -98 -30 -107 -35 -10 -6 -25 -10 -33 -10 -8 0 -48 -15 -87 -34 -105 -48 -247 -112 -287 -127 l-34 -13 6 -115 c4 -64 18 -197 32 -296 15 -99 30 -208 34 -242 14 -98 125 -478 143 -489 4 -3 8 -16 8 -29 0 -13 16 -58 35 -99 19 -42 35 -81 35 -88 0 -6 14 -41 31 -77 94 -199 122 -257 129 -271 49 -83 60 -104 60 -113 0 -5 16 -34 35 -63 19 -29 35 -56 35 -61 0 -4 15 -30 33 -58 19 -27 49 -76 67 -108 19 -31 38 -57 42 -57 4 0 8 -8 8 -18 0 -10 8 -27 18 -38 16 -17 101 -140 127 -182 6 -10 25 -34 42 -55 18 -20 33 -44 33 -52 0 -8 4 -15 8 -15 7 0 76 -85 140 -174 12 -17 28 -35 35 -41 7 -5 24 -26 37 -45 13 -19 35 -43 47 -53 13 -10 23 -22 23 -27 0 -21 457 -487 579 -591 35 -29 73 -64 84 -76 12 -13 26 -23 34 -23 7 0 19 -11 28 -24 8 -12 31 -31 50 -42 19 -10 35 -21 35 -25 0 -7 127 -104 174 -133 17 -10 42 -29 55 -42 13 -13 27 -24 31 -24 4 0 50 -28 101 -63 80 -53 136 -87 239 -146 8 -5 35 -19 60 -31 25 -13 52 -29 61 -36 8 -8 22 -14 30 -14 8 0 47 -18 87 -40 40 -22 80 -40 88 -40 8 0 40 -13 72 -29 31 -15 68 -32 82 -36 69 -20 507 -240 537 -270 7 -8 23 -17 35 -21 12 -3 29 -14 39 -23 33 -30 176 -96 254 -117 29 -8 101 -14 171 -14 105 0 133 4 200 26 44 14 83 30 89 35 5 5 17 9 26 9 18 0 121 59 127 73 2 4 11 7 21 7 9 0 27 9 39 20 23 22 153 98 223 131 8 4 39 19 67 34 34 18 78 30 122 35 68 7 166 41 300 102 59 26 107 50 255 125 27 14 61 34 74 44 13 11 30 19 37 19 12 0 72 36 101 60 7 5 17 10 22 10 6 0 39 19 75 42 35 24 79 52 98 63 60 36 82 50 172 110 49 33 100 67 114 75 14 8 33 22 42 30 10 8 52 40 95 70 43 30 94 69 114 87 20 17 77 68 127 111 153 135 534 520 534 541 0 3 14 19 30 36 26 25 100 113 128 150 4 6 35 46 67 90 33 44 70 94 83 110 12 17 43 62 69 100 25 39 49 72 53 75 4 3 10 15 14 27 4 13 14 29 22 38 15 15 71 109 108 180 11 22 35 62 53 90 18 27 33 55 33 61 0 7 16 40 35 74 19 34 35 65 35 68 0 4 15 39 34 77 47 96 113 245 121 275 4 14 20 53 36 88 16 35 29 69 29 76 0 7 11 41 26 77 14 35 31 87 39 114 7 28 29 97 48 155 38 114 83 269 99 340 6 25 25 104 44 175 44 167 45 234 6 296 -29 44 -116 129 -134 129 -6 0 -22 8 -36 18 -94 63 -476 161 -752 192 -515 58 -1110 83 -2080 90 l-65 0 3 218 c2 119 5 217 6 218 3 2 294 -16 486 -30 306 -22 584 -35 980 -46 377 -10 515 -20 720 -52 74 -11 160 -24 190 -28 49 -7 168 -41 300 -86 234 -80 351 -117 356 -111 13 13 24 513 22 962 l-3 480 -205 7 c-464 16 -1145 52 -1470 78 -291 23 -796 103 -995 157 -49 14 -129 35 -177 48 -97 26 -178 54 -193 67 -5 4 -19 8 -31 8 -13 0 -57 16 -98 35 -42 19 -81 35 -87 35 -5 0 -49 18 -97 41 -48 22 -121 57 -162 76 -41 19 -106 50 -145 69 -38 19 -78 34 -87 34 -22 0 -22 7 -3 191 28 281 57 476 96 651 21 97 39 183 39 190 -1 12 19 76 101 333 40 126 44 211 11 270 -43 77 -64 110 -81 130 -10 11 -33 47 -51 80 -19 33 -40 66 -47 73 -7 7 -13 20 -13 27 0 13 -35 73 -60 102 -5 7 -10 17 -10 23 0 6 -12 32 -27 58 -27 44 -110 203 -188 357 -41 81 -103 187 -125 212 -8 10 -23 31 -33 46 -10 15 -28 32 -40 38 -12 5 -33 16 -47 24 -38 22 -127 19 -180 -7z m147 -3086 c21 -13 31 -55 43 -178 14 -142 67 -296 137 -404 13 -19 23 -40 23 -47 0 -7 16 -35 35 -62 19 -26 35 -53 35 -58 0 -5 16 -27 35 -49 19 -21 35 -44 35 -50 0 -6 11 -21 25 -34 36 -34 31 -44 -12 -22 -50 25 -90 39 -198 69 -80 22 -105 24 -225 20 -119 -3 -146 -8 -225 -35 -49 -17 -90 -30 -91 -29 -1 1 13 25 32 52 18 28 34 56 34 64 0 8 6 22 14 30 30 35 119 226 168 361 36 97 58 192 58 247 0 38 26 114 43 125 15 10 19 10 34 0z m113 -1008 c41 -8 89 -20 105 -26 47 -18 196 -109 202 -124 3 -8 10 -14 16 -14 12 0 57 -40 57 -51 0 -4 13 -20 28 -36 82 -83 162 -303 162 -447 0 -112 -54 -311 -96 -354 -7 -6 -16 -22 -19 -33 -13 -41 -129 -161 -186 -193 -19 -11 -39 -25 -45 -31 -7 -6 -61 -31 -120 -55 l-109 -44 -145 0 c-117 -1 -155 3 -200 18 -84 29 -220 94 -220 105 0 5 -9 13 -20 16 -25 8 -127 111 -135 136 -4 11 -10 19 -15 19 -14 0 -97 178 -114 245 -20 76 -21 262 -2 335 20 74 89 220 115 244 11 11 21 24 21 30 0 6 16 27 35 46 19 19 35 38 35 42 0 4 6 8 13 8 6 0 26 13 43 29 56 53 191 117 284 135 139 26 177 26 310 0z m826 -384 c7 0 29 -8 49 -17 l35 -17 0 -190 c0 -224 -15 -323 -59 -409 -17 -33 -31 -64 -31 -69 0 -20 -113 -149 -167 -191 -49 -37 -197 -117 -217 -117 -15 0 30 52 55 66 16 8 29 21 29 29 0 7 13 23 28 33 15 11 34 33 42 49 8 15 17 30 20 33 20 19 60 81 60 92 0 7 6 25 14 39 7 15 23 54 35 88 19 57 21 82 21 346 l0 284 36 -24 c20 -14 43 -25 50 -25z m-1884 -257 c4 -262 4 -270 31 -348 31 -90 76 -169 151 -265 28 -36 42 -58 31 -50 -11 8 -24 21 -28 28 -4 6 -14 12 -21 12 -12 0 -100 96 -121 131 -5 10 -22 39 -38 65 -15 25 -39 83 -54 128 -25 77 -27 94 -30 318 l-5 237 34 4 c18 2 36 5 40 5 4 1 8 -118 10 -265z m383 -928 c28 -7 67 -16 88 -20 41 -7 39 -13 -16 -48 -15 -10 -31 -25 -34 -34 -4 -9 -24 -34 -45 -55 l-38 -38 -1 28 c0 15 -12 64 -27 109 l-28 82 26 -5 c14 -4 48 -12 75 -19z m1168 -17 c-32 -54 -41 -71 -53 -105 -7 -18 -15 -33 -19 -33 -4 0 -37 29 -73 65 l-65 65 36 1 c20 0 65 8 101 18 94 26 95 26 73 -11z m-530 -59 c43 -12 93 -59 113 -106 19 -44 18 -156 -2 -194 -25 -49 -89 -108 -134 -124 -128 -45 -254 6 -315 129 -39 78 -30 159 27 238 37 53 211 85 311 57z m368 -286 c54 -111 55 -133 40 -640 -6 -208 -18 -718 -26 -1133 -18 -973 -33 -1431 -51 -1655 -16 -196 -27 -256 -53 -278 -39 -32 -418 -73 -601 -64 -150 8 -176 17 -183 65 -8 47 -24 431 -37 862 -14 461 -26 836 -47 1435 -10 281 -18 693 -18 916 l0 406 35 69 35 69 7 -48 c9 -66 71 -173 132 -229 28 -27 54 -48 58 -48 4 0 1 -15 -7 -32 -18 -46 -28 -121 -21 -161 5 -25 16 -39 45 -55 41 -23 57 -22 102 9 22 15 27 29 32 79 9 86 18 99 66 96 54 -3 71 -20 71 -72 0 -83 30 -124 91 -124 61 0 89 33 89 105 0 31 -5 75 -11 99 l-11 43 74 75 c62 62 78 86 96 139 12 36 25 86 28 112 4 26 10 47 15 47 4 0 26 -39 50 -87z"/>
</g>
<g id="layer107" fill="#303030" stroke="none">
<path d="M1865 11973 c-27 -14 -72 -33 -100 -43 -28 -10 -76 -31 -107 -47 -30 -17 -67 -33 -82 -37 -14 -3 -48 -20 -76 -36 -28 -17 -58 -30 -66 -30 -9 0 -43 -16 -75 -35 -33 -19 -65 -35 -70 -35 -6 0 -41 -18 -79 -40 -38 -22 -73 -40 -79 -40 -5 0 -37 -16 -70 -35 -32 -19 -62 -35 -65 -35 -21 0 -336 -198 -336 -211 0 -5 -7 -9 -15 -9 -8 0 -29 -16 -48 -35 -19 -19 -38 -35 -42 -35 -7 0 -66 -60 -143 -143 -61 -67 -192 -295 -192 -334 0 -11 -4 -23 -8 -28 -13 -14 -51 -123 -61 -175 -5 -25 -23 -93 -40 -151 -17 -58 -33 -126 -37 -150 -3 -24 -16 -100 -29 -169 -43 -227 -47 -313 -42 -851 4 -386 10 -565 26 -764 11 -143 25 -339 31 -435 29 -490 43 -632 81 -814 22 -108 33 -136 77 -182 20 -22 44 -35 81 -43 62 -13 597 -15 605 -2 3 4 -1 179 -9 387 -8 209 -15 528 -15 709 0 337 9 450 45 595 9 36 21 85 26 108 12 57 72 193 115 259 19 28 34 55 34 60 0 5 15 27 33 49 19 21 36 45 38 51 2 7 17 27 32 45 15 18 73 87 128 153 56 66 138 161 184 210 45 50 103 115 128 145 26 30 57 66 70 80 61 64 201 261 227 319 35 78 95 734 110 1206 12 365 7 557 -17 580 -24 24 -110 18 -168 -12z"/>
<path d="M4190 10038 c-48 -22 -90 -56 -90 -70 0 -5 -8 -18 -18 -28 -22 -24 -75 -117 -157 -275 -117 -225 -157 -300 -166 -311 -5 -7 -23 -38 -40 -70 -39 -76 -57 -107 -97 -172 -17 -29 -32 -55 -32 -59 0 -3 -18 -29 -39 -57 -119 -155 -119 -207 0 -586 22 -69 39 -131 39 -139 0 -7 15 -79 34 -160 51 -215 91 -476 106 -691 5 -74 12 -160 15 -190 l6 -55 -158 -77 c-196 -96 -311 -148 -326 -148 -7 0 -48 -14 -92 -31 -44 -17 -98 -34 -120 -39 -22 -4 -89 -22 -148 -39 -60 -18 -145 -39 -190 -46 -45 -8 -134 -26 -197 -40 -63 -13 -131 -25 -150 -25 -19 0 -69 -6 -110 -14 -173 -33 -541 -68 -990 -96 -85 -6 -370 -13 -634 -17 l-478 -6 5 -556 c3 -306 10 -599 16 -651 13 -119 30 -190 44 -190 13 0 212 54 374 101 57 17 144 34 195 40 51 5 100 11 108 14 33 10 397 44 570 54 102 6 331 16 510 21 371 13 572 24 815 45 256 23 267 24 306 31 l36 6 5 -249 c4 -170 9 -257 18 -272 15 -29 5 -24 -58 27 l-43 34 -862 -21 c-1092 -28 -1349 -42 -1502 -86 -49 -14 -98 -30 -107 -35 -10 -6 -25 -10 -33 -10 -8 0 -48 -15 -87 -34 -105 -48 -247 -112 -287 -127 l-34 -13 6 -115 c4 -64 18 -197 32 -296 15 -99 30 -208 34 -242 14 -98 125 -478 143 -489 4 -3 8 -16 8 -29 0 -13 16 -58 35 -99 19 -42 35 -81 35 -88 0 -6 14 -41 31 -77 18 -36 52 -109 76 -161 24 -52 48 -102 53 -110 44 -73 60 -104 60 -113 0 -5 16 -34 35 -63 19 -29 35 -56 35 -61 0 -4 15 -30 33 -58 19 -27 49 -76 67 -108 19 -31 38 -57 42 -57 4 0 8 -8 8 -18 0 -10 8 -27 18 -38 16 -17 101 -140 127 -182 6 -10 25 -34 42 -55 18 -20 33 -44 33 -52 0 -8 4 -15 8 -15 7 0 76 -85 140 -174 12 -17 28 -35 35 -41 7 -5 24 -26 37 -45 13 -19 35 -43 47 -53 13 -10 23 -22 23 -27 0 -21 457 -487 579 -591 35 -29 73 -64 84 -76 12 -13 26 -23 32 -23 6 0 25 -15 43 -34 18 -19 41 -38 52 -41 11 -4 20 -10 20 -14 0 -9 122 -103 174 -135 17 -10 42 -29 55 -42 13 -13 27 -24 31 -24 4 0 50 -28 101 -63 80 -53 136 -87 239 -146 8 -5 35 -19 60 -31 25 -13 52 -29 61 -36 8 -8 22 -14 30 -14 8 0 47 -18 87 -40 40 -22 80 -40 88 -40 8 0 40 -13 72 -29 31 -15 68 -32 82 -36 69 -20 507 -240 537 -270 7 -8 23 -17 35 -21 12 -3 29 -14 39 -23 33 -30 176 -96 254 -117 29 -8 101 -14 171 -14 105 0 133 4 200 26 44 14 83 30 89 35 5 5 17 9 26 9 18 0 121 59 127 73 2 4 11 7 21 7 9 0 27 9 39 20 23 22 153 98 223 131 8 4 39 19 67 34 34 18 78 30 122 35 68 7 166 41 300 102 59 26 107 50 255 125 27 14 61 34 74 44 13 11 30 19 37 19 12 0 72 36 101 60 7 5 17 10 22 10 6 0 39 19 75 42 35 24 79 52 98 63 60 36 82 50 172 110 49 33 100 67 114 75 14 8 33 22 42 30 10 8 52 40 95 70 43 30 94 69 114 87 20 17 77 68 127 111 153 135 534 520 534 541 0 3 14 19 30 36 26 25 100 113 128 150 4 6 35 46 67 90 33 44 70 94 83 110 12 17 43 62 69 100 25 39 49 72 53 75 4 3 10 15 14 27 4 13 14 29 22 38 15 15 71 109 108 180 11 22 35 62 53 90 18 27 33 55 33 61 0 7 16 40 35 74 19 34 35 65 35 68 0 4 15 39 34 77 47 96 113 245 121 275 4 14 20 53 36 88 16 35 29 69 29 76 0 7 11 41 26 77 14 35 31 87 39 114 7 28 29 97 48 155 38 114 83 269 99 340 6 25 25 104 44 175 44 167 45 234 6 296 -29 44 -116 129 -134 129 -6 0 -22 8 -36 18 -94 63 -476 161 -752 192 -515 58 -1110 83 -2080 90 l-65 0 3 218 c2 119 5 217 6 218 3 2 294 -16 486 -30 306 -22 584 -35 980 -46 377 -10 515 -20 720 -52 74 -11 160 -24 190 -28 49 -7 168 -41 300 -86 234 -80 351 -117 356 -111 13 13 24 513 22 962 l-3 480 -205 7 c-464 16 -1145 52 -1470 78 -291 23 -796 103 -995 157 -49 14 -129 35 -177 48 -97 26 -178 54 -193 67 -5 4 -19 8 -31 8 -13 0 -57 16 -98 35 -42 19 -81 35 -87 35 -5 0 -49 18 -97 41 -48 22 -121 57 -162 76 -41 19 -106 50 -145 69 -38 19 -78 34 -87 34 -22 0 -22 7 -3 191 28 281 57 476 96 651 21 97 39 183 39 190 -1 12 19 76 101 333 40 126 44 211 11 270 -43 77 -64 110 -81 130 -10 11 -33 47 -51 80 -19 33 -40 66 -47 73 -7 7 -13 20 -13 27 0 13 -35 73 -60 102 -5 7 -10 17 -10 23 0 6 -12 32 -27 58 -27 44 -110 203 -188 357 -41 81 -103 187 -125 212 -8 10 -23 31 -33 46 -10 15 -28 32 -40 38 -12 5 -33 16 -47 24 -38 22 -127 19 -180 -7z m147 -3086 c21 -13 31 -55 43 -178 14 -142 67 -296 137 -404 13 -19 23 -40 23 -47 0 -7 16 -35 35 -62 19 -26 35 -53 35 -58 0 -5 16 -27 35 -49 19 -21 35 -44 35 -50 0 -6 11 -21 25 -34 36 -34 31 -44 -12 -22 -50 25 -90 39 -198 69 -80 22 -105 24 -225 20 -119 -3 -146 -8 -225 -35 -49 -17 -90 -30 -91 -29 -1 1 13 25 32 52 18 28 34 56 34 64 0 8 6 22 14 30 30 35 119 226 168 361 36 97 58 192 58 247 0 38 26 114 43 125 15 10 19 10 34 0z m113 -1008 c41 -8 89 -20 105 -26 47 -18 196 -109 202 -124 3 -8 10 -14 16 -14 12 0 57 -40 57 -51 0 -4 13 -20 28 -36 82 -83 162 -303 162 -447 0 -112 -54 -311 -96 -354 -7 -6 -16 -22 -19 -33 -13 -41 -129 -161 -186 -193 -19 -11 -39 -25 -45 -31 -7 -6 -61 -31 -120 -55 l-109 -44 -145 0 c-117 -1 -155 3 -200 18 -84 29 -220 94 -220 105 0 5 -9 13 -20 16 -25 8 -127 111 -135 136 -4 11 -10 19 -15 19 -14 0 -97 178 -114 245 -20 76 -21 262 -2 335 20 74 89 220 115 244 11 11 21 24 21 30 0 6 16 27 35 46 19 19 35 38 35 42 0 4 6 8 13 8 6 0 26 13 43 29 56 53 191 117 284 135 139 26 177 26 310 0z m826 -384 c7 0 29 -8 49 -17 l35 -17 0 -190 c0 -224 -15 -323 -59 -409 -17 -33 -31 -64 -31 -69 0 -20 -113 -149 -167 -191 -49 -37 -197 -117 -217 -117 -15 0 30 52 55 66 16 8 29 21 29 29 0 7 13 23 28 33 15 11 34 33 42 49 8 15 17 30 20 33 20 19 60 81 60 92 0 7 6 25 14 39 7 15 23 54 35 88 19 57 21 82 21 346 l0 284 36 -24 c20 -14 43 -25 50 -25z m-1884 -257 c4 -262 4 -270 31 -348 31 -90 76 -169 151 -265 28 -36 42 -58 31 -50 -11 8 -24 21 -28 28 -4 6 -14 12 -21 12 -12 0 -100 96 -121 131 -5 10 -22 39 -38 65 -15 25 -39 83 -54 128 -25 77 -27 94 -30 318 l-5 237 34 4 c18 2 36 5 40 5 4 1 8 -118 10 -265z m383 -928 c28 -7 67 -16 88 -20 41 -7 39 -13 -16 -48 -15 -10 -31 -25 -34 -34 -4 -9 -24 -34 -45 -55 l-38 -38 -1 28 c0 15 -12 64 -27 109 l-28 82 26 -5 c14 -4 48 -12 75 -19z m1168 -17 c-32 -54 -41 -71 -53 -105 -7 -18 -15 -33 -19 -33 -4 0 -37 29 -73 65 l-65 65 36 1 c20 0 65 8 101 18 94 26 95 26 73 -11z m-530 -59 c43 -12 93 -59 113 -106 19 -44 18 -156 -2 -194 -25 -49 -89 -108 -134 -124 -50 -18 -134 -19 -181 -4 -76 26 -159 142 -159 225 0 45 20 102 52 146 37 53 211 85 311 57z m368 -286 c54 -111 55 -133 40 -640 -6 -208 -18 -718 -26 -1133 -18 -973 -33 -1431 -51 -1655 -16 -196 -27 -256 -53 -278 -39 -32 -418 -73 -601 -64 -150 8 -176 17 -183 65 -8 47 -24 431 -37 862 -14 467 -27 842 -47 1435 -10 281 -18 695 -18 920 l0 410 37 70 38 70 0 -42 c0 -62 66 -183 132 -244 29 -27 56 -49 60 -49 4 0 1 -15 -7 -32 -18 -46 -28 -121 -21 -161 5 -25 16 -39 45 -55 41 -23 57 -22 102 9 22 15 27 29 32 79 9 86 18 99 66 96 54 -3 71 -20 71 -72 0 -83 30 -124 91 -124 61 0 89 33 89 105 0 31 -5 75 -11 99 l-11 43 74 75 c62 62 78 86 96 139 12 36 25 86 28 112 4 26 10 47 15 47 4 0 26 -39 50 -87z"/>
</g>
<g id="layer108" fill="#383838" stroke="none">
<path d="M1865 11973 c-27 -14 -72 -33 -100 -43 -28 -10 -76 -31 -107 -47 -30 -17 -67 -33 -82 -37 -14 -3 -48 -20 -76 -36 -28 -17 -58 -30 -66 -30 -9 0 -43 -16 -75 -35 -33 -19 -65 -35 -70 -35 -6 0 -41 -18 -79 -40 -38 -22 -73 -40 -78 -40 -6 0 -41 -18 -80 -40 -38 -22 -71 -40 -74 -40 -20 0 -318 -188 -318 -201 0 -5 -6 -9 -14 -9 -17 0 -154 -124 -234 -213 -62 -69 -192 -295 -192 -334 0 -11 -4 -23 -8 -28 -13 -14 -51 -123 -61 -175 -5 -25 -23 -93 -40 -151 -17 -58 -33 -126 -37 -150 -3 -24 -16 -100 -29 -169 -43 -227 -47 -313 -42 -851 4 -386 10 -565 26 -764 11 -143 25 -339 31 -435 29 -490 43 -632 81 -814 22 -108 33 -136 77 -182 20 -22 44 -35 81 -43 62 -13 597 -15 605 -2 3 4 -1 179 -9 387 -8 209 -15 528 -15 709 0 337 9 450 45 595 9 36 21 85 26 108 12 57 72 193 115 259 19 28 34 55 34 60 0 5 15 27 33 49 19 21 36 45 38 51 2 7 17 27 32 45 15 18 73 87 128 153 56 66 136 158 179 205 42 47 100 112 128 145 28 33 62 71 75 85 62 65 201 261 227 319 35 79 95 735 111 1211 11 372 6 545 -19 573 -24 27 -106 22 -167 -10z"/>
<path d="M4190 10038 c-48 -22 -90 -56 -90 -70 0 -5 -8 -18 -18 -28 -22 -24 -75 -117 -157 -275 -117 -225 -157 -300 -166 -311 -5 -7 -23 -38 -40 -70 -39 -76 -57 -107 -97 -172 -17 -29 -32 -55 -32 -59 0 -3 -18 -29 -39 -57 -119 -155 -119 -207 0 -586 22 -69 39 -131 39 -139 0 -7 15 -79 34 -160 51 -215 91 -476 106 -691 5 -74 12 -160 15 -190 l6 -55 -158 -77 c-196 -96 -311 -148 -326 -148 -7 0 -48 -14 -92 -31 -44 -17 -98 -34 -120 -39 -22 -4 -89 -22 -148 -39 -60 -18 -145 -39 -190 -46 -45 -8 -134 -26 -197 -40 -63 -13 -131 -25 -150 -25 -19 0 -69 -6 -110 -14 -173 -33 -541 -68 -990 -96 -85 -6 -370 -13 -634 -17 l-478 -6 5 -556 c3 -306 10 -599 16 -651 13 -119 30 -190 44 -190 13 0 212 54 374 101 57 17 144 34 195 40 51 5 100 11 108 14 33 10 397 44 570 54 102 6 331 16 510 21 371 13 572 24 815 45 256 23 267 24 306 31 l36 6 5 -250 c4 -166 10 -257 18 -272 15 -28 5 -23 -58 28 l-43 34 -862 -21 c-1092 -28 -1349 -42 -1502 -86 -49 -14 -98 -30 -107 -35 -10 -6 -25 -10 -33 -10 -8 0 -48 -15 -87 -34 -105 -48 -247 -112 -287 -127 l-34 -13 6 -115 c4 -64 18 -197 32 -296 15 -99 30 -207 34 -240 13 -93 118 -460 141 -490 4 -5 10 -24 13 -41 3 -17 20 -61 36 -98 17 -37 31 -72 31 -78 0 -10 19 -51 112 -248 43 -91 44 -92 83 -159 14 -24 25 -48 25 -54 0 -5 16 -34 35 -63 19 -29 35 -56 35 -61 0 -4 15 -30 33 -58 19 -27 49 -76 67 -108 19 -31 38 -57 42 -57 4 0 8 -8 8 -18 0 -10 8 -27 18 -38 16 -17 101 -140 127 -182 6 -10 25 -34 42 -55 18 -20 33 -44 33 -52 0 -8 4 -15 8 -15 7 0 76 -85 140 -174 12 -17 28 -35 35 -41 7 -5 24 -26 37 -45 13 -19 35 -43 47 -53 13 -10 23 -22 23 -27 0 -32 504 -534 670 -667 8 -7 35 -31 59 -53 25 -22 53 -42 63 -46 10 -3 18 -9 18 -13 0 -9 122 -103 174 -135 17 -10 42 -29 55 -42 13 -13 27 -24 31 -24 4 0 50 -28 101 -63 80 -53 136 -87 239 -146 8 -5 35 -19 60 -31 25 -13 52 -29 61 -36 8 -8 22 -14 30 -14 8 0 47 -18 87 -40 40 -22 80 -40 88 -40 8 0 40 -13 72 -29 31 -15 68 -32 82 -36 69 -20 507 -240 537 -270 7 -8 23 -17 35 -21 12 -3 29 -14 39 -23 33 -30 176 -96 254 -117 29 -8 101 -14 171 -14 105 0 133 4 200 26 44 14 83 30 89 35 5 5 17 9 26 9 18 0 121 59 127 73 2 4 11 7 21 7 9 0 27 9 39 20 23 22 153 98 223 131 8 4 39 19 67 34 34 18 78 30 122 35 68 7 166 41 300 102 59 26 107 50 255 125 27 14 61 34 74 44 13 11 30 19 37 19 12 0 72 36 101 60 7 5 17 10 22 10 6 0 39 19 75 42 35 24 79 52 98 63 60 36 82 50 172 110 49 33 100 67 114 75 14 8 33 22 42 30 10 8 52 40 95 70 43 30 94 69 114 87 20 17 77 68 127 111 153 135 534 520 534 541 0 3 14 19 30 36 26 25 100 113 128 150 4 6 35 46 67 90 33 44 70 94 83 110 12 17 43 62 69 100 25 39 49 72 53 75 4 3 10 15 14 27 4 13 14 29 22 38 15 15 71 109 108 180 11 22 35 62 53 90 18 27 33 55 33 61 0 7 16 40 35 74 19 34 35 65 35 68 0 4 15 39 34 77 47 96 113 245 121 275 4 14 20 53 36 88 16 35 29 69 29 76 0 7 11 41 26 77 14 35 31 87 39 114 7 28 29 97 48 155 38 114 83 269 99 340 6 25 25 104 44 175 44 167 45 234 6 296 -29 44 -116 129 -134 129 -6 0 -22 8 -36 18 -94 63 -476 161 -752 192 -515 58 -1110 83 -2080 90 l-65 0 3 218 c2 119 5 217 6 218 3 2 294 -16 486 -30 306 -22 584 -35 980 -46 377 -10 515 -20 720 -52 74 -11 160 -24 190 -28 49 -7 168 -41 300 -86 234 -80 351 -117 356 -111 13 13 24 513 22 962 l-3 480 -205 7 c-464 16 -1145 52 -1470 78 -291 23 -796 103 -995 157 -49 14 -129 35 -177 48 -97 26 -178 54 -193 67 -5 4 -19 8 -31 8 -13 0 -57 16 -98 35 -42 19 -81 35 -87 35 -5 0 -49 18 -97 41 -48 22 -121 57 -162 76 -41 19 -106 50 -145 69 -38 19 -78 34 -87 34 -22 0 -22 7 -3 191 28 281 57 476 96 651 21 97 39 183 39 190 -1 12 19 76 101 333 40 126 44 211 11 270 -43 77 -64 110 -81 130 -10 11 -33 47 -51 80 -19 33 -40 66 -47 73 -7 7 -13 20 -13 27 0 13 -35 73 -60 102 -5 7 -10 17 -10 23 0 6 -12 32 -27 58 -27 44 -110 203 -188 357 -41 81 -103 187 -125 212 -8 10 -23 31 -33 46 -10 15 -28 32 -40 38 -12 5 -33 16 -47 24 -38 22 -127 19 -180 -7z m147 -3086 c21 -13 31 -55 43 -178 14 -142 67 -296 137 -404 13 -19 23 -40 23 -47 0 -7 16 -35 35 -62 19 -26 35 -53 35 -58 0 -5 16 -27 35 -49 19 -21 35 -44 35 -50 0 -6 11 -21 25 -34 36 -34 31 -44 -12 -22 -50 25 -90 39 -198 69 -80 22 -105 24 -225 20 -119 -3 -146 -8 -225 -35 -49 -17 -90 -30 -91 -29 -1 1 13 25 32 52 18 28 34 56 34 64 0 8 6 22 14 30 30 36 109 204 164 351 39 105 62 199 62 257 0 38 26 114 43 125 15 10 19 10 34 0z m113 -1008 c41 -8 89 -20 105 -26 47 -18 196 -109 202 -124 3 -8 10 -14 16 -14 12 0 57 -40 57 -51 0 -4 13 -20 28 -36 82 -83 162 -303 162 -447 0 -112 -54 -311 -96 -354 -7 -6 -16 -22 -19 -33 -13 -41 -129 -161 -186 -193 -19 -11 -39 -25 -45 -31 -7 -6 -61 -31 -120 -55 l-109 -44 -145 0 c-117 -1 -155 3 -200 18 -84 29 -220 94 -220 105 0 5 -9 13 -20 16 -20 6 -130 112 -130 125 0 4 -10 19 -23 33 -36 43 -90 159 -112 242 -19 76 -20 262 -1 335 20 74 89 220 115 244 11 11 21 24 21 30 0 6 16 27 35 46 19 19 35 38 35 42 0 4 6 8 13 8 6 0 26 13 43 29 56 53 191 117 284 135 139 26 177 26 310 0z m826 -384 c7 0 29 -8 49 -17 l35 -17 0 -190 c0 -224 -15 -323 -59 -409 -17 -33 -31 -64 -31 -69 0 -20 -113 -149 -167 -191 -49 -37 -197 -117 -217 -117 -15 0 30 52 55 66 16 8 29 21 29 29 0 7 13 23 28 33 15 11 34 33 42 49 8 15 17 30 20 33 20 19 60 81 60 92 0 7 6 25 14 39 7 15 23 54 35 88 19 57 21 82 21 346 l0 284 36 -24 c20 -14 43 -25 50 -25z m-1884 -257 c4 -263 4 -270 31 -348 32 -90 78 -171 151 -265 28 -36 42 -58 31 -50 -11 8 -24 21 -28 28 -4 6 -14 12 -21 12 -12 0 -100 96 -121 131 -5 10 -22 39 -38 65 -15 25 -39 83 -54 128 -25 77 -27 94 -30 318 l-5 237 34 4 c18 2 36 5 40 5 4 1 8 -118 10 -265z m383 -928 c28 -7 67 -16 88 -20 41 -7 39 -13 -16 -48 -15 -10 -31 -25 -34 -34 -4 -9 -24 -34 -45 -55 l-38 -38 -1 28 c0 15 -12 64 -27 109 l-28 82 26 -5 c14 -4 48 -12 75 -19z m1168 -17 c-32 -54 -41 -71 -53 -105 -7 -18 -15 -33 -19 -33 -4 0 -37 29 -73 65 l-65 65 36 1 c20 0 65 8 101 18 94 26 95 26 73 -11z m-530 -59 c43 -12 93 -59 113 -106 19 -44 18 -156 -2 -194 -25 -49 -89 -108 -134 -124 -50 -18 -134 -19 -181 -4 -76 26 -159 142 -159 225 0 45 20 102 52 146 37 53 211 85 311 57z m368 -286 c54 -111 55 -133 40 -640 -6 -208 -18 -718 -26 -1133 -18 -973 -33 -1431 -51 -1655 -16 -196 -27 -256 -53 -278 -39 -32 -418 -73 -601 -64 -150 8 -176 17 -183 65 -8 47 -24 431 -37 862 -14 467 -27 842 -47 1435 -10 281 -18 695 -18 920 l0 410 37 70 38 70 0 -42 c0 -62 66 -183 132 -244 29 -27 56 -49 60 -49 4 0 1 -15 -7 -32 -18 -46 -28 -121 -21 -161 8 -43 71 -82 108 -68 47 18 65 44 72 105 9 83 18 95 65 92 54 -3 71 -20 71 -72 0 -83 30 -124 91 -124 61 0 89 33 89 105 0 31 -5 75 -11 99 l-11 43 74 75 c62 62 78 86 96 139 12 36 25 86 28 112 4 26 10 47 15 47 4 0 26 -39 50 -87z"/>
</g>
<g id="layer109" fill="#404040" stroke="none">
<path d="M1865 11973 c-27 -14 -72 -33 -100 -43 -28 -10 -76 -31 -107 -47 -30 -17 -67 -33 -82 -37 -14 -3 -48 -20 -76 -36 -28 -17 -58 -30 -66 -30 -9 0 -43 -16 -77 -36 -34 -20 -68 -37 -77 -39 -9 -2 -43 -19 -77 -39 -34 -20 -68 -36 -75 -36 -8 0 -18 -4 -24 -9 -5 -5 -49 -30 -99 -56 -49 -26 -97 -54 -106 -61 -8 -8 -19 -14 -24 -14 -14 0 -199 -122 -208 -136 -4 -8 -14 -14 -21 -14 -18 0 -162 -133 -236 -217 -67 -77 -190 -291 -190 -330 0 -11 -4 -23 -8 -28 -13 -14 -51 -123 -61 -175 -5 -25 -23 -93 -40 -151 -17 -58 -33 -126 -37 -150 -3 -24 -16 -100 -29 -169 -40 -210 -45 -302 -45 -752 0 -432 10 -637 56 -1203 8 -104 15 -224 15 -265 -1 -214 64 -694 104 -769 29 -55 70 -88 124 -100 62 -13 597 -15 605 -2 3 4 -1 179 -9 387 -28 727 -19 1114 31 1309 8 33 19 80 24 103 12 55 73 192 114 256 17 27 31 52 31 57 0 4 17 28 37 53 21 25 38 49 38 55 0 5 13 22 30 38 16 15 30 32 30 37 0 5 17 28 38 51 20 23 44 50 52 61 20 24 191 217 199 224 7 5 127 143 151 173 8 10 26 30 40 45 66 70 204 263 230 322 51 112 140 1398 115 1647 -5 43 -9 88 -10 100 -3 39 -24 53 -79 53 -35 -1 -67 -9 -101 -27z"/>
<path d="M6834 11960 c-12 -5 -32 -30 -45 -57 -24 -48 -24 -52 -27 -423 -4 -368 8 -716 29 -855 5 -38 14 -104 19 -145 10 -88 71 -274 112 -343 15 -26 28 -50 28 -53 0 -5 81 -125 90 -134 3 -3 29 -35 59 -72 29 -38 57 -68 62 -68 5 0 9 -6 9 -12 0 -13 21 -36 153 -168 37 -38 67 -72 67 -77 0 -4 17 -24 38 -45 99 -99 112 -114 112 -125 0 -7 4 -13 9 -13 10 0 100 -117 162 -211 86 -129 173 -332 189 -439 5 -30 16 -102 26 -160 25 -151 23 -526 -5 -1068 -13 -244 -20 -449 -17 -457 5 -13 60 -15 369 -15 l365 0 26 143 c32 175 46 296 46 409 0 48 7 192 15 320 39 608 48 849 52 1461 4 445 2 667 -6 735 -16 137 -56 315 -103 467 -22 72 -45 146 -51 165 -5 19 -20 57 -33 84 -13 28 -24 55 -24 61 0 6 -16 37 -35 69 -19 32 -35 64 -35 70 0 7 -8 21 -18 32 -10 10 -32 39 -49 64 -50 73 -152 178 -239 246 -45 35 -86 64 -91 64 -5 0 -20 10 -32 21 -28 26 -131 86 -227 132 -39 19 -74 39 -78 45 -3 6 -20 13 -37 17 -17 4 -61 25 -98 46 -38 21 -74 39 -81 39 -6 0 -42 15 -79 34 -109 56 -215 106 -224 106 -5 0 -45 18 -89 40 -45 22 -88 40 -97 40 -9 1 -41 9 -71 20 -58 21 -111 24 -146 10z"/>
<path d="M4182 10034 c-28 -13 -60 -37 -69 -52 -10 -15 -25 -35 -33 -44 -20 -22 -74 -118 -155 -273 -127 -244 -157 -300 -166 -311 -5 -7 -23 -38 -40 -70 -39 -76 -57 -107 -97 -172 -17 -29 -32 -55 -32 -59 0 -3 -18 -29 -39 -57 -66 -86 -91 -142 -91 -204 0 -62 32 -195 91 -382 22 -69 39 -131 39 -139 0 -7 15 -79 34 -160 51 -215 91 -476 106 -691 5 -74 12 -160 15 -190 l6 -55 -158 -78 c-190 -93 -310 -147 -326 -147 -7 0 -48 -14 -92 -31 -44 -17 -98 -34 -120 -39 -22 -4 -89 -22 -148 -39 -60 -18 -145 -38 -190 -46 -45 -8 -122 -24 -172 -35 -49 -11 -126 -25 -170 -30 -44 -4 -154 -20 -245 -33 -177 -27 -304 -40 -550 -57 -382 -26 -493 -30 -944 -37 l-478 -6 5 -556 c3 -306 10 -599 16 -651 14 -124 30 -190 46 -190 7 0 66 15 132 33 65 19 136 38 158 44 22 6 81 23 130 37 50 14 109 26 131 26 23 0 64 4 92 10 180 34 582 63 1112 80 351 12 584 24 750 40 58 5 157 14 220 20 63 5 131 12 151 16 l36 6 5 -250 c4 -166 10 -257 18 -272 15 -28 5 -23 -58 28 l-44 35 -251 -7 c-139 -4 -522 -13 -852 -21 -829 -21 -1116 -39 -1260 -80 -49 -14 -98 -30 -107 -35 -10 -6 -24 -10 -33 -10 -8 0 -47 -15 -87 -34 -40 -19 -120 -55 -178 -81 -58 -25 -112 -50 -120 -54 -23 -13 -17 -191 15 -411 14 -102 30 -212 34 -245 13 -93 118 -460 141 -490 4 -5 10 -24 13 -41 3 -17 20 -61 36 -98 17 -37 31 -72 31 -78 0 -12 42 -102 116 -251 19 -37 34 -74 34 -81 0 -8 4 -16 8 -18 10 -4 62 -97 62 -111 0 -5 16 -34 35 -63 19 -29 35 -56 35 -61 0 -4 15 -30 33 -58 19 -27 49 -76 67 -108 19 -31 38 -57 42 -57 4 0 8 -9 8 -19 0 -11 4 -21 9 -23 7 -2 102 -141 136 -196 6 -10 25 -34 42 -55 18 -20 33 -44 33 -52 0 -8 4 -15 8 -15 7 0 76 -85 140 -174 12 -17 28 -35 35 -41 7 -5 24 -26 37 -45 13 -19 35 -43 47 -53 13 -10 23 -22 23 -27 0 -32 504 -534 670 -667 8 -7 35 -31 59 -53 25 -22 53 -42 63 -46 10 -3 18 -9 18 -13 0 -7 115 -98 159 -126 9 -5 32 -21 51 -35 66 -47 252 -170 259 -170 3 0 37 -20 74 -45 38 -25 72 -45 77 -45 4 0 27 -11 51 -25 86 -50 231 -121 242 -117 4 1 39 -14 77 -33 38 -19 75 -35 81 -35 29 0 516 -245 546 -275 7 -8 23 -17 35 -21 12 -3 29 -14 39 -23 32 -29 160 -89 248 -115 37 -11 94 -16 177 -16 104 0 133 4 200 26 44 14 83 30 89 35 5 5 17 9 26 9 18 0 121 59 127 73 2 4 11 7 21 7 9 0 27 9 39 20 23 22 153 98 223 131 8 4 39 19 67 34 34 18 78 30 122 35 68 7 166 41 300 102 59 26 107 50 255 125 27 14 61 34 74 44 13 11 30 19 37 19 12 0 72 36 101 60 7 5 17 10 22 10 6 0 39 19 75 42 35 24 79 52 98 63 60 36 82 50 172 110 49 33 100 67 114 75 14 8 33 22 42 30 10 8 52 40 95 70 43 30 94 69 114 87 20 17 77 68 127 111 153 135 534 520 534 541 0 3 14 19 30 36 26 25 100 113 128 150 4 6 35 46 67 90 33 44 70 94 83 110 12 17 43 62 69 100 25 39 49 72 53 75 4 3 10 15 14 27 4 13 14 29 22 38 15 15 71 109 108 180 11 22 35 62 53 90 18 27 33 55 33 61 0 7 16 40 35 74 19 34 35 65 35 68 0 4 15 39 34 77 47 96 113 245 121 275 4 14 20 53 36 88 16 35 29 69 29 76 0 7 11 41 26 77 14 35 31 87 39 114 7 28 29 97 48 155 38 114 83 269 99 340 6 25 25 104 44 175 44 167 45 234 6 296 -29 44 -116 129 -134 129 -6 0 -22 8 -36 18 -94 63 -476 161 -752 192 -515 58 -1110 83 -2080 90 l-65 0 3 218 c2 119 5 217 6 218 3 2 294 -16 486 -30 306 -22 584 -35 980 -46 377 -10 515 -20 720 -52 74 -11 160 -24 190 -28 49 -7 168 -41 300 -86 234 -80 351 -117 356 -111 13 13 24 513 22 962 l-3 480 -205 7 c-464 16 -1145 52 -1470 78 -291 23 -796 103 -995 157 -49 14 -129 35 -177 48 -97 26 -178 54 -193 67 -5 4 -19 8 -31 8 -13 0 -57 16 -98 35 -42 19 -81 35 -87 35 -5 0 -49 18 -97 41 -48 22 -121 57 -162 76 -41 19 -106 50 -145 69 -38 19 -78 34 -87 34 -22 0 -22 7 -3 191 28 281 57 476 96 651 21 97 39 183 39 190 -1 12 19 76 101 333 40 126 44 211 11 270 -43 77 -64 110 -81 130 -10 11 -33 47 -51 80 -19 33 -40 66 -47 73 -7 7 -13 20 -13 27 0 13 -35 73 -60 102 -5 7 -10 17 -10 23 0 6 -12 32 -27 58 -27 44 -110 203 -188 357 -41 81 -103 187 -125 212 -8 10 -23 31 -33 46 -10 15 -28 32 -40 38 -12 5 -33 16 -47 24 -40 24 -127 19 -188 -11z m155 -3082 c21 -13 31 -55 43 -178 14 -142 67 -296 137 -404 13 -19 23 -40 23 -47 0 -7 16 -35 35 -62 19 -26 35 -53 35 -58 0 -5 16 -27 35 -49 19 -21 35 -44 35 -50 0 -6 11 -21 25 -34 36 -34 31 -44 -12 -22 -50 25 -90 39 -198 69 -80 22 -105 24 -225 20 -119 -3 -146 -8 -225 -35 -49 -17 -90 -30 -91 -29 -1 1 10 21 26 43 15 23 31 52 35 65 4 13 13 31 19 39 17 21 64 104 63 110 -1 3 12 34 30 70 73 151 133 342 133 427 0 38 26 114 43 125 15 10 19 10 34 0z m113 -1008 c41 -8 89 -20 105 -26 47 -18 196 -109 202 -124 3 -8 10 -14 16 -14 12 0 57 -40 57 -51 0 -4 13 -20 28 -36 82 -83 162 -303 162 -447 0 -112 -54 -311 -96 -354 -7 -6 -16 -22 -19 -33 -13 -41 -129 -161 -186 -193 -19 -11 -39 -25 -45 -31 -7 -6 -61 -31 -120 -55 l-109 -44 -145 0 c-117 -1 -155 3 -200 18 -86 30 -220 94 -220 106 0 5 -6 10 -14 10 -14 0 -136 116 -136 130 0 4 -10 19 -23 33 -33 40 -86 152 -111 236 -21 70 -21 266 -2 341 17 63 85 209 121 258 34 47 94 112 102 112 5 0 22 13 39 29 56 53 191 117 284 135 139 26 177 26 310 0z m826 -384 c7 0 29 -8 49 -17 l35 -17 0 -190 c0 -224 -15 -323 -59 -409 -17 -33 -31 -64 -31 -69 0 -20 -113 -149 -167 -191 -49 -37 -197 -117 -217 -117 -15 0 30 52 55 66 16 8 29 21 29 29 0 7 13 23 28 33 15 11 34 33 42 49 8 15 17 30 20 33 20 19 60 81 60 92 0 7 6 25 14 39 7 15 23 54 35 88 19 57 21 82 21 346 l0 284 36 -24 c20 -14 43 -25 50 -25z m-1884 -257 c4 -263 4 -270 31 -348 31 -86 79 -174 136 -245 72 -90 70 -86 39 -66 -16 10 -28 22 -28 27 0 5 -6 9 -13 9 -13 0 -101 95 -122 131 -5 10 -22 39 -38 65 -15 25 -39 83 -54 128 -25 77 -27 94 -30 318 l-5 237 34 4 c18 2 36 5 40 5 4 1 8 -118 10 -265z m383 -928 c28 -7 67 -16 88 -20 41 -7 39 -13 -16 -48 -15 -10 -31 -25 -34 -34 -4 -9 -24 -34 -45 -55 l-38 -38 -1 28 c0 15 -12 64 -27 109 l-28 82 26 -5 c14 -4 48 -12 75 -19z m1168 -17 c-32 -54 -41 -71 -53 -105 -7 -18 -15 -33 -19 -33 -4 0 -37 29 -73 65 l-65 65 36 1 c20 0 65 8 101 18 94 26 95 26 73 -11z m-530 -59 c43 -12 93 -59 113 -106 19 -44 18 -156 -2 -194 -25 -49 -89 -108 -134 -124 -51 -18 -134 -19 -181 -3 -28 9 -129 88 -122 95 1 2 -7 22 -17 45 -27 59 -25 118 5 183 31 64 38 70 106 94 61 22 173 27 232 10z m368 -286 c54 -111 55 -133 40 -640 -6 -208 -18 -718 -26 -1133 -18 -973 -33 -1431 -51 -1655 -16 -196 -27 -256 -53 -278 -39 -32 -418 -73 -601 -64 -150 8 -176 17 -183 65 -8 47 -24 431 -37 862 -14 467 -27 842 -47 1435 -10 281 -18 695 -18 920 l0 410 37 70 37 70 0 -40 c1 -35 30 -106 74 -181 14 -24 108 -114 119 -114 4 0 1 -15 -7 -32 -18 -46 -28 -121 -21 -161 8 -43 71 -82 108 -68 47 18 65 44 72 105 9 83 18 95 65 92 54 -3 71 -20 71 -72 0 -83 30 -124 91 -124 61 0 89 33 89 105 0 31 -5 75 -11 99 l-11 43 74 75 c62 62 78 86 96 139 12 36 25 86 28 112 4 26 10 47 15 47 4 0 26 -39 50 -87z"/>
</g>
<g id="layer110" fill="#484848" stroke="none">
<path d="M6834 11960 c-12 -5 -32 -30 -45 -57 -24 -48 -24 -52 -27 -423 -4 -368 8 -716 29 -855 5 -38 14 -104 19 -145 10 -88 71 -274 112 -343 15 -26 28 -50 28 -53 0 -5 81 -125 90 -134 3 -3 29 -35 59 -72 29 -38 57 -68 62 -68 5 0 9 -6 9 -12 0 -7 18 -31 39 -53 131 -131 181 -184 181 -191 0 -4 18 -26 41 -48 106 -107 178 -195 270 -332 95 -141 183 -340 199 -454 5 -30 16 -102 26 -160 25 -151 23 -526 -5 -1068 -13 -244 -20 -449 -17 -457 5 -13 60 -15 369 -15 l365 0 26 143 c32 175 46 296 46 409 0 48 7 192 15 320 39 608 48 849 52 1461 4 445 2 667 -6 735 -16 137 -56 315 -103 467 -22 72 -45 146 -51 165 -10 35 -42 111 -78 185 -85 177 -203 322 -355 441 -45 35 -86 64 -91 64 -5 0 -20 10 -32 21 -28 26 -131 86 -227 132 -39 19 -74 39 -78 45 -3 6 -20 13 -37 17 -17 4 -61 25 -98 46 -38 21 -74 39 -81 39 -6 0 -42 15 -79 34 -109 56 -215 106 -224 106 -5 0 -45 18 -89 40 -45 22 -88 40 -97 40 -9 1 -41 9 -71 20 -58 21 -111 24 -146 10z"/>
<path d="M4308 8506 c-2 -855 0 -1552 4 -1550 15 9 38 -10 47 -39 6 -18 15 -84 22 -147 13 -137 67 -294 136 -400 13 -19 23 -40 23 -47 0 -7 16 -35 35 -62 19 -26 35 -53 35 -58 0 -5 16 -27 35 -49 19 -21 35 -44 35 -50 0 -6 11 -21 25 -34 36 -34 31 -44 -12 -22 -83 42 -264 92 -334 92 l-49 0 0 -90 0 -90 38 0 c54 -1 193 -34 246 -59 65 -32 166 -99 166 -111 0 -5 6 -10 13 -10 13 0 57 -40 57 -52 0 -4 13 -19 28 -35 82 -83 162 -303 162 -447 0 -112 -54 -311 -96 -354 -7 -6 -16 -22 -19 -33 -10 -32 -144 -179 -162 -179 -3 0 -22 -12 -41 -27 -42 -32 -237 -113 -273 -113 -14 0 -47 -3 -73 -6 l-46 -7 0 -108 0 -109 33 0 c83 0 153 -45 183 -117 19 -44 18 -156 -2 -194 -37 -72 -131 -139 -195 -139 -17 0 -19 -9 -19 -86 0 -80 2 -88 25 -106 20 -15 25 -28 25 -63 0 -84 30 -125 91 -125 61 0 89 33 89 105 0 31 -5 75 -11 99 l-11 43 74 75 c62 62 78 86 96 139 12 36 25 86 28 112 4 26 10 47 15 47 4 0 26 -39 50 -88 54 -110 55 -132 40 -639 -6 -208 -18 -718 -26 -1133 -18 -973 -33 -1431 -51 -1655 -16 -196 -27 -256 -53 -278 -18 -15 -181 -44 -303 -54 l-78 -6 0 -125 0 -125 78 5 c71 5 194 38 217 59 5 5 17 9 26 9 18 0 121 59 127 73 2 4 11 7 21 7 9 0 27 9 39 20 23 22 153 98 223 131 8 4 39 19 67 34 34 18 78 30 122 35 69 8 174 43 295 100 33 15 85 40 115 54 30 14 91 45 135 70 44 24 113 61 153 82 39 20 72 41 72 46 0 4 7 8 15 8 8 0 43 19 79 43 35 23 79 51 98 62 60 36 82 50 172 110 49 33 100 67 114 75 14 8 33 22 42 30 10 8 52 40 95 70 43 30 90 66 104 80 14 14 36 32 49 41 13 9 94 81 179 160 164 152 281 274 542 570 23 25 41 51 41 57 0 6 6 15 13 19 7 4 40 44 73 88 32 44 69 94 82 110 12 17 43 62 69 100 25 39 49 72 53 75 4 3 10 15 14 27 4 13 14 29 22 38 15 14 70 107 108 180 12 22 33 58 47 80 14 22 29 50 33 63 4 13 23 50 42 83 19 34 34 64 34 67 0 4 15 39 34 77 47 96 113 245 121 275 4 14 20 53 36 88 16 35 29 69 29 76 0 7 11 41 26 77 14 35 31 87 39 114 7 28 29 97 48 155 38 114 83 269 99 340 6 25 25 104 44 175 44 167 45 234 5 296 -68 106 -163 162 -391 233 -248 76 -565 120 -1175 162 -172 11 -982 31 -1435 34 l-66 0 4 218 c2 119 5 217 6 218 3 2 294 -16 486 -30 306 -22 584 -35 980 -46 377 -10 515 -20 720 -52 74 -11 160 -24 190 -28 49 -7 168 -41 300 -86 234 -80 351 -117 356 -111 13 13 24 513 22 962 l-3 480 -205 7 c-464 16 -1145 52 -1470 78 -289 23 -795 103 -995 157 -49 13 -124 33 -165 44 -88 23 -191 59 -205 71 -5 4 -19 8 -31 8 -13 0 -57 16 -98 35 -42 19 -81 35 -87 35 -5 0 -49 18 -97 41 -48 22 -121 57 -162 76 -41 19 -106 50 -145 69 -38 19 -78 34 -87 34 -22 0 -22 7 -3 191 28 281 57 476 96 651 21 97 39 183 39 190 -1 12 19 76 101 333 40 126 44 211 11 270 -43 77 -64 110 -81 130 -10 11 -33 47 -51 80 -19 33 -40 66 -47 73 -7 7 -13 22 -13 33 0 10 -4 19 -8 19 -5 0 -17 18 -27 40 -10 22 -22 40 -27 40 -4 0 -8 7 -8 16 0 8 -12 36 -27 62 -27 44 -110 203 -188 357 -41 81 -103 187 -125 212 -8 10 -23 31 -33 46 -10 15 -28 32 -40 38 -12 5 -33 16 -47 24 -14 8 -33 15 -42 15 -17 0 -18 -84 -20 -1554z m968 -2946 c7 0 29 -8 49 -17 l35 -17 0 -190 c0 -224 -15 -323 -59 -409 -17 -33 -31 -64 -31 -69 0 -20 -113 -149 -167 -191 -49 -37 -197 -117 -217 -117 -15 0 30 52 55 66 16 8 29 20 29 27 0 6 18 29 40 50 22 20 40 44 40 51 0 8 3 16 8 18 13 6 62 76 62 90 0 7 6 25 14 39 7 15 23 54 35 88 19 57 21 82 21 346 l0 284 36 -24 c20 -14 43 -25 50 -25z m-333 -1202 c-32 -54 -41 -71 -53 -105 -7 -18 -15 -33 -19 -33 -4 0 -37 29 -73 65 l-65 65 36 1 c20 0 65 8 101 18 94 26 95 26 73 -11z"/>
<path d="M874 8150 c0 -91 2 -128 3 -82 2 45 2 119 0 165 -1 45 -3 8 -3 -83z"/>
<path d="M2853 5043 c43 -2 110 -2 150 0 40 1 5 3 -78 3 -82 0 -115 -2 -72 -3z"/>
<path d="M153 4610 c0 -25 2 -35 4 -22 2 12 2 32 0 45 -2 12 -4 2 -4 -23z"/>
<path d="M3794 3625 c0 -137 2 -195 3 -128 2 67 2 179 0 250 -1 70 -3 16 -3 -122z"/>
</g>
<g id="layer111" fill="#505050" stroke="none">
<path d="M6834 11960 c-12 -5 -32 -30 -45 -57 -24 -48 -24 -52 -27 -423 -4 -368 8 -716 29 -855 5 -38 14 -104 19 -145 10 -88 71 -274 112 -343 15 -26 28 -50 28 -53 0 -5 81 -125 90 -134 3 -3 29 -35 59 -72 29 -38 57 -68 62 -68 5 0 9 -6 9 -12 0 -7 18 -31 39 -53 131 -131 181 -184 181 -191 0 -4 18 -26 41 -48 106 -107 178 -195 270 -332 120 -178 181 -336 217 -559 22 -141 25 -190 26 -420 0 -143 -11 -459 -23 -703 -13 -244 -20 -449 -17 -457 5 -13 60 -15 369 -15 l364 0 26 138 c30 159 36 213 42 377 2 66 11 226 19 355 39 588 49 848 53 1462 5 684 3 748 -43 944 -14 60 -27 122 -30 137 -2 16 -18 70 -35 120 -17 51 -37 115 -44 143 -13 48 -41 116 -86 209 -85 177 -203 322 -355 441 -45 35 -85 64 -89 64 -5 0 -24 12 -44 28 -44 34 -125 81 -217 125 -39 19 -74 39 -78 45 -3 6 -20 14 -37 17 -18 4 -57 22 -88 40 -31 18 -67 36 -81 40 -14 4 -54 22 -90 40 -114 58 -215 105 -223 105 -4 0 -42 17 -84 37 -42 20 -84 38 -93 39 -8 0 -43 11 -77 23 -65 22 -113 26 -149 11z"/>
<path d="M4308 8506 c-2 -855 0 -1552 4 -1550 15 9 38 -10 47 -39 6 -18 15 -84 22 -147 13 -137 67 -294 136 -400 13 -19 23 -40 23 -47 0 -7 16 -35 35 -62 19 -26 35 -53 35 -58 0 -5 16 -27 35 -49 19 -21 35 -43 35 -47 0 -4 11 -20 25 -35 36 -38 31 -44 -17 -23 -126 56 -253 91 -330 91 l-48 0 0 -90 0 -90 38 0 c54 -1 193 -34 246 -59 65 -32 166 -99 166 -111 0 -5 6 -10 13 -10 13 0 57 -40 57 -52 0 -4 13 -19 28 -35 82 -83 162 -303 162 -447 0 -112 -54 -311 -96 -354 -7 -6 -16 -22 -19 -33 -10 -32 -144 -179 -162 -179 -3 0 -22 -12 -41 -27 -42 -32 -237 -113 -273 -113 -14 0 -47 -3 -73 -6 l-46 -7 0 -108 0 -109 33 0 c83 0 153 -45 183 -117 20 -45 18 -156 -2 -196 -37 -71 -130 -137 -195 -137 -17 0 -19 -9 -19 -86 0 -80 2 -88 25 -106 20 -15 25 -28 25 -63 0 -84 30 -125 91 -125 63 0 89 33 88 112 0 35 -5 79 -12 98 l-12 35 75 75 c64 64 79 86 98 141 12 36 25 86 28 112 4 26 10 47 15 47 4 0 26 -39 50 -88 54 -110 55 -132 40 -639 -6 -208 -18 -718 -26 -1133 -18 -973 -33 -1431 -51 -1655 -16 -196 -27 -256 -53 -278 -18 -15 -181 -44 -303 -54 l-78 -6 0 -125 0 -125 78 5 c71 5 194 38 217 59 5 5 17 9 26 9 18 0 121 59 127 73 2 4 11 7 21 7 9 0 27 9 39 20 23 22 153 98 223 131 8 4 39 19 67 34 34 18 78 30 122 35 69 8 174 43 295 100 33 15 85 40 115 54 30 14 91 45 135 70 44 24 113 61 153 82 39 20 72 41 72 46 0 4 7 8 15 8 8 0 43 19 79 43 35 23 79 51 98 62 60 36 82 50 172 110 49 33 100 67 114 75 14 8 33 22 42 30 10 8 52 40 95 70 43 30 90 66 104 80 14 14 36 32 49 41 13 9 94 81 179 160 164 152 281 274 542 570 23 25 41 51 41 57 0 6 6 15 13 19 7 4 40 44 73 88 32 44 69 94 82 110 12 17 43 62 69 100 25 39 49 72 53 75 4 3 10 15 14 27 4 13 14 29 22 38 15 14 70 107 108 180 12 22 33 58 47 80 14 22 29 50 33 63 4 13 23 50 42 83 19 34 34 64 34 67 0 4 15 39 34 77 47 96 113 245 121 275 4 14 20 53 36 88 16 35 29 69 29 76 0 7 11 41 26 77 14 35 31 87 39 114 7 28 29 97 48 155 38 114 83 269 99 340 6 25 25 104 44 175 44 167 45 234 5 296 -68 106 -163 162 -391 233 -248 76 -565 120 -1175 162 -172 11 -982 31 -1435 34 l-66 0 4 218 c2 119 5 217 6 218 3 2 294 -16 486 -30 306 -22 584 -35 980 -46 377 -10 515 -20 720 -52 74 -11 160 -24 190 -28 49 -7 168 -41 300 -86 234 -80 351 -117 356 -111 13 13 24 513 22 962 l-3 480 -205 7 c-464 16 -1145 52 -1470 78 -289 23 -795 103 -995 157 -49 13 -124 33 -165 44 -88 23 -191 59 -205 71 -5 4 -19 8 -31 8 -13 0 -57 16 -98 35 -42 19 -81 35 -87 35 -5 0 -49 18 -97 41 -48 22 -114 53 -147 69 -33 15 -99 46 -147 69 -47 22 -93 41 -102 41 -20 0 -20 10 -1 191 28 281 57 476 96 651 21 97 39 183 39 190 -1 12 13 56 101 333 40 125 43 202 12 265 -30 60 -61 111 -82 135 -10 11 -33 47 -51 80 -19 33 -40 66 -47 73 -7 7 -13 22 -13 33 0 10 -4 19 -8 19 -5 0 -17 18 -27 40 -10 22 -22 40 -27 40 -4 0 -8 7 -8 16 0 8 -12 36 -27 62 -27 44 -110 203 -188 357 -41 81 -103 187 -125 212 -8 10 -23 31 -33 46 -10 15 -28 32 -40 38 -12 5 -33 16 -47 24 -14 8 -33 15 -42 15 -17 0 -18 -84 -20 -1554z m968 -2946 c7 0 29 -8 49 -17 l35 -17 0 -190 c0 -224 -15 -323 -59 -409 -17 -33 -31 -64 -31 -69 0 -20 -114 -150 -168 -192 -53 -40 -192 -116 -214 -116 -16 0 25 51 53 66 16 8 29 20 29 27 0 6 18 29 40 50 22 20 40 44 40 51 0 8 3 16 8 18 13 6 62 76 62 90 0 7 6 25 14 39 7 15 23 54 35 88 19 57 21 82 21 346 l0 284 36 -24 c20 -14 43 -25 50 -25z m-333 -1202 c-32 -54 -41 -71 -53 -105 -7 -18 -15 -33 -19 -33 -4 0 -37 29 -73 65 l-67 65 37 1 c20 0 66 8 102 18 94 26 95 26 73 -11z"/>
<path d="M3874 975 c0 -66 1 -92 3 -57 2 34 2 88 0 120 -2 31 -3 3 -3 -63z"/>
</g>
<g id="layer112" fill="#585858" stroke="none">
<path d="M6834 11960 c-12 -5 -32 -30 -45 -57 -24 -48 -24 -52 -27 -423 -4 -368 8 -716 29 -855 5 -38 14 -104 19 -145 11 -92 71 -273 118 -355 35 -60 102 -166 112 -175 3 -3 27 -33 54 -67 26 -34 54 -64 62 -67 8 -3 14 -11 14 -18 0 -7 18 -31 40 -53 132 -132 180 -184 180 -190 0 -5 18 -27 41 -49 75 -75 106 -110 161 -181 200 -257 289 -451 329 -725 20 -136 23 -189 22 -440 -1 -157 -10 -442 -20 -635 -10 -192 -17 -385 -15 -427 l3 -78 363 0 364 0 25 143 c34 184 39 227 38 306 0 36 4 122 9 191 10 132 20 307 46 765 21 364 31 1503 15 1653 -6 59 -23 157 -37 217 -14 61 -27 123 -30 138 -2 16 -18 70 -35 120 -17 51 -37 115 -44 143 -13 48 -41 116 -86 209 -85 177 -203 322 -355 441 -45 35 -85 64 -89 64 -5 0 -24 12 -44 28 -44 34 -117 75 -251 142 -58 29 -127 64 -155 78 -56 29 -53 27 -155 75 -41 19 -113 53 -160 76 -47 22 -88 41 -93 41 -4 0 -42 17 -84 37 -42 20 -84 38 -93 39 -8 0 -43 11 -77 23 -65 22 -113 26 -149 11z"/>
<path d="M4308 8507 c-2 -855 0 -1553 4 -1551 15 9 38 -10 47 -39 6 -18 15 -84 22 -147 13 -137 67 -294 136 -400 13 -19 23 -40 23 -46 0 -12 76 -132 112 -177 13 -15 25 -33 27 -40 2 -6 15 -23 28 -36 34 -37 29 -43 -19 -22 -126 56 -253 91 -330 91 l-48 0 0 -90 0 -90 38 0 c54 -1 193 -34 246 -59 65 -32 166 -99 166 -111 0 -5 6 -10 13 -10 13 0 57 -40 57 -52 0 -4 13 -19 28 -35 82 -83 162 -303 162 -447 0 -112 -54 -311 -96 -354 -7 -6 -16 -22 -19 -33 -10 -32 -144 -179 -162 -179 -3 0 -22 -12 -41 -27 -42 -32 -237 -113 -273 -113 -14 0 -47 -3 -73 -6 l-46 -7 0 -108 0 -109 33 0 c83 0 153 -45 183 -117 20 -45 18 -156 -2 -196 -37 -71 -130 -137 -195 -137 -17 0 -19 -9 -19 -86 0 -79 2 -88 24 -105 19 -15 24 -30 28 -79 5 -77 33 -110 90 -110 62 0 88 33 87 112 0 35 -5 79 -12 98 l-12 35 75 75 c62 63 79 87 97 140 13 36 26 86 29 113 4 26 10 47 15 47 4 0 26 -39 50 -88 54 -110 55 -132 40 -639 -6 -208 -18 -718 -26 -1133 -18 -973 -33 -1431 -51 -1655 -16 -196 -27 -256 -53 -278 -18 -15 -181 -44 -303 -54 l-78 -6 0 -125 0 -125 78 5 c71 5 194 38 217 59 5 5 19 9 32 9 13 0 23 3 23 8 0 4 23 18 50 31 28 14 50 29 50 33 0 4 8 8 18 8 10 0 28 9 40 20 23 22 153 98 223 131 8 4 39 19 67 34 34 18 78 30 122 35 69 8 174 43 295 100 33 15 85 40 115 54 30 14 91 46 135 70 44 25 96 52 115 62 19 9 54 29 78 45 24 16 47 29 52 29 5 0 38 19 74 43 35 23 79 51 98 62 60 36 82 50 172 110 49 33 100 67 114 75 14 8 33 22 42 30 10 8 52 40 95 70 43 30 90 66 104 80 14 14 36 32 49 41 53 37 343 313 450 429 177 192 297 329 317 361 6 9 32 43 58 75 26 33 64 84 84 114 20 30 42 60 49 65 6 6 28 37 49 70 21 33 41 62 45 65 4 3 10 15 14 28 4 12 18 34 30 50 22 27 60 90 100 167 12 22 33 58 47 80 14 22 29 50 33 63 4 13 23 50 42 83 19 34 34 66 34 73 0 6 7 22 16 35 17 24 59 118 121 271 19 47 45 109 59 138 13 29 24 58 24 64 0 6 15 54 34 107 65 182 108 316 121 376 8 33 25 96 39 139 15 43 26 87 26 96 0 10 16 75 35 146 45 164 47 232 6 295 -47 73 -130 137 -236 181 -143 59 -464 133 -685 158 -122 14 -528 48 -715 61 -126 8 -967 26 -1360 29 l-71 0 4 218 c2 119 5 217 6 218 3 2 293 -16 491 -30 319 -23 577 -35 882 -41 324 -7 633 -28 808 -56 72 -11 157 -24 190 -28 53 -8 172 -42 305 -87 234 -80 351 -117 356 -111 13 13 24 513 22 962 l-3 480 -210 7 c-203 7 -636 27 -1050 48 -514 26 -1107 105 -1410 187 -49 13 -124 33 -165 44 -88 23 -191 59 -205 71 -5 4 -19 8 -31 8 -13 0 -57 16 -98 35 -42 19 -81 35 -87 35 -5 0 -49 18 -97 41 -48 22 -114 53 -147 69 -33 15 -99 46 -147 69 -47 22 -93 41 -102 41 -20 0 -20 10 -1 191 28 281 57 476 96 651 21 97 39 184 39 193 0 8 14 56 31 106 17 50 32 101 34 113 1 11 16 62 33 111 42 125 48 172 27 235 -9 28 -29 65 -43 82 -15 18 -26 34 -24 37 2 3 -8 20 -21 36 -13 17 -38 57 -57 90 -19 33 -40 66 -47 73 -7 7 -13 22 -13 33 0 10 -4 19 -8 19 -5 0 -17 18 -27 40 -10 22 -22 40 -27 40 -4 0 -8 7 -8 16 0 8 -12 36 -27 62 -27 44 -110 203 -188 357 -42 82 -104 187 -125 212 -8 10 -26 33 -38 51 -13 17 -28 32 -34 32 -6 0 -19 7 -28 15 -9 8 -31 18 -48 21 l-32 6 -2 -1555z m968 -2947 c7 0 29 -8 49 -17 l35 -17 0 -190 c0 -238 -10 -310 -55 -401 -19 -39 -35 -74 -35 -78 0 -19 -115 -150 -168 -191 -53 -41 -192 -116 -214 -116 -16 0 34 62 54 68 10 2 18 9 18 14 0 5 20 29 45 55 25 25 45 51 45 58 0 7 3 15 8 17 13 6 62 76 62 90 0 7 6 25 14 39 7 15 23 54 35 88 19 57 21 82 21 346 l0 284 36 -24 c20 -14 43 -25 50 -25z m-333 -1202 c-32 -54 -41 -71 -53 -105 -7 -18 -15 -33 -19 -33 -4 0 -37 29 -73 65 l-67 65 37 1 c20 0 66 8 102 18 94 26 95 26 73 -11z"/>
<path d="M73 7840 c0 -36 2 -50 4 -32 2 17 2 47 0 65 -2 17 -4 3 -4 -33z"/>
<path d="M843 4973 c9 -2 25 -2 35 0 9 3 1 5 -18 5 -19 0 -27 -2 -17 -5z"/>
</g>
<g id="layer113" fill="#606060" stroke="none">
<path d="M5593 5493 c15 -2 39 -2 55 0 15 2 2 4 -28 4 -30 0 -43 -2 -27 -4z"/>
</g>
<g id="layer114" fill="#686868" stroke="none">
<path d="M4533 3595 c0 -38 2 -53 4 -32 2 20 2 52 0 70 -2 17 -4 1 -4 -38z"/>
</g>
<g id="layer115" fill="#707070" stroke="none">
</g>
<g id="layer116" fill="#787878" stroke="none">
</g>
<g id="layer117" fill="#808080" stroke="none">
<path d="M1972 10400 c0 -19 2 -27 5 -17 2 9 2 25 0 35 -3 9 -5 1 -5 -18z"/>
<path d="M473 7023 c82 -2 212 -2 290 0 78 1 12 3 -148 3 -159 0 -223 -2 -142 -3z"/>
<path d="M8093 7023 c104 -2 270 -2 370 0 100 1 16 2 -188 2 -203 0 -285 -1 -182 -2z"/>
<path d="M8543 6583 c9 -2 25 -2 35 0 9 3 1 5 -18 5 -19 0 -27 -2 -17 -5z"/>
</g>


</svg>